<?xml version="1.0" encoding="iso-8859-1"?>
<!-- Generator: Adobe Illustrator 22.1.0, SVG Export Plug-In . SVG Version: 6.00 Build 0)  -->
<svg version="1.1" id="Warstwa_1" xmlns="http://www.w3.org/2000/svg" xmlns:xlink="http://www.w3.org/1999/xlink" x="0px" y="0px"
	 viewBox="0 0 833.73 552.873" style="enable-background:new 0 0 833.73 552.873;" xml:space="preserve">
<g>
	<g>
		<path style="fill:#3C99FF;" d="M26.309,528.326h-14.2v23.777H0v-70.452h25.428c26.97,0,29.393,13.761,29.393,23.557
			C54.821,514.785,53.39,528.326,26.309,528.326z M25.869,491.558H12.109v27.08H26.2c14.64,0,16.182-7.484,16.182-13.43
			C42.382,499.264,40.731,491.558,25.869,491.558z"/>
		<path style="fill:#3C99FF;" d="M66.597,552.103v-70.452h48.987v9.907H78.596v19.705h33.575v9.798H78.596v21.136h36.988v9.907
			H66.597z"/>
		<path style="fill:#3C99FF;" d="M167.321,552.103l-28.401-27.631v27.631H126.81v-70.452h25.099c26.53,0,29.282,13.54,29.282,22.567
			c0,17.393-13.87,21.465-27.411,21.465l29.832,26.42H167.321z M152.459,491.558H138.92v25.099h13.759
			c14.311,0,16.293-6.825,16.293-12.439C168.972,498.714,166.88,491.558,152.459,491.558z"/>
		<path style="fill:#3C99FF;" d="M205.406,491.558v19.705h33.245v9.798h-33.245v31.043h-11.999v-70.452h47.886v9.907H205.406z"/>
		<path style="fill:#3C99FF;" d="M250.758,552.103v-70.452h48.986v9.907h-36.987v19.705h33.575v9.798h-33.575v21.136h36.987v9.907
			H250.758z"/>
		<path style="fill:#3C99FF;" d="M353.243,552.103l-30.163-32.914v32.914h-12.108v-70.452h12.108v30.602l28.401-30.602h16.293
			l-34.126,33.575l35.997,36.877H353.243z"/>
		<path style="fill:#3C99FF;" d="M399.364,491.558v60.545h-11.779v-60.545h-20.256v-9.907h52.289v9.907H399.364z"/>
		<path style="fill:#3C99FF;" d="M452.749,552.103v-70.452h48.986v9.907h-36.987v19.705h33.575v9.798h-33.575v21.136h36.987v9.907
			H452.749z"/>
		<path style="fill:#3C99FF;" d="M547.198,552.103h-14.862l-27.19-70.452h12.88l21.907,61.535l22.126-61.535h12.989L547.198,552.103
			z"/>
		<path style="fill:#3C99FF;" d="M581.981,552.103v-70.452h48.987v9.907h-36.988v19.705h33.575v9.798h-33.575v21.136h36.988v9.907
			H581.981z"/>
		<path style="fill:#3C99FF;" d="M691.51,552.103l-36.877-55.04v55.04h-12.109v-70.452h15.521l36.327,54.601v-54.601h12.109v70.452
			H691.51z"/>
		<path style="fill:#3C99FF;" d="M746.988,491.558v60.545h-11.78v-60.545h-20.255v-9.907h52.289v9.907H746.988z"/>
		<path style="fill:#3C99FF;" d="M805.219,552.873c-23.117,0-31.483-10.127-31.703-25.978h12.109
			c0.33,8.806,4.954,15.521,19.264,15.521c13.43,0,16.952-4.844,16.952-10.348c0-16.513-45.905-4.954-46.345-29.612
			c0-12.659,7.926-21.576,28.181-21.576c20.365,0,28.952,9.687,29.062,24.768H820.74c-0.55-9.687-5.504-14.64-17.502-14.64
			c-10.899,0-15.742,3.743-15.742,10.237c0,15.192,46.233,4.183,46.233,30.273C833.73,541.535,827.345,552.873,805.219,552.873z"/>
	</g>
	<g>
		<linearGradient id="SVGID_1_" gradientUnits="userSpaceOnUse" x1="225.1397" y1="584.0294" x2="541.3027" y2="267.8664">
			<stop  offset="0" style="stop-color:#FF0072"/>
			<stop  offset="0.4409" style="stop-color:#FF5C00"/>
			<stop  offset="1" style="stop-color:#FFCE00"/>
		</linearGradient>
		<path style="fill:url(#SVGID_1_);" d="M333.516,401.696c12.039-43.329,51.74-75.147,98.91-75.147s86.885,31.818,98.92,75.147
			h80.937c-13.26-87.413-88.727-154.408-179.856-154.408c-91.121,0-166.592,66.995-179.856,154.408H333.516z"/>
		<g>
			<linearGradient id="SVGID_2_" gradientUnits="userSpaceOnUse" x1="256.9167" y1="775.3685" x2="860.2745" y2="172.0107">
				<stop  offset="0" style="stop-color:#FF001C"/>
				<stop  offset="0.2194" style="stop-color:#FF009D"/>
				<stop  offset="0.2587" style="stop-color:#F9049F"/>
				<stop  offset="0.3112" style="stop-color:#E80FA3"/>
				<stop  offset="0.3713" style="stop-color:#CC22AA"/>
				<stop  offset="0.437" style="stop-color:#A53CB4"/>
				<stop  offset="0.5073" style="stop-color:#735DC0"/>
				<stop  offset="0.5802" style="stop-color:#3785CF"/>
				<stop  offset="0.6399" style="stop-color:#00AADD"/>
				<stop  offset="0.898" style="stop-color:#E9D013"/>
				<stop  offset="1" style="stop-color:#FFD400"/>
			</linearGradient>
			<path style="fill:url(#SVGID_2_);" d="M833.472,302.994c0,0-0.821,1.48-2.463,3.925c-0.817,1.276-1.851,2.705-3.085,4.347
				c-1.243,1.652-2.635,3.619-4.278,5.559c-6.532,8.008-16.28,18.071-28.839,27.512c-6.259,4.816-13.241,9.39-20.804,13.677
				c-7.558,4.305-15.728,8.221-24.645,10.856c-4.463,1.295-9.084,2.353-13.854,3.155c-4.769,0.784-9.701,1.28-14.642,1.865
				c-9.924,1.011-19.982,2.144-29.795,4.023c-9.817,1.842-19.597,3.814-29.317,5.474c-9.673,1.786-19.286,3.266-28.575,4.779
				c-9.326,1.354-18.299,2.788-26.891,3.929c-8.578,1.169-16.684,2.273-24.176,3.294c-7.475,1.039-14.41,1.754-20.511,2.505
				c-6.106,0.743-11.451,1.345-15.867,1.763c-8.815,0.928-13.891,1.345-13.891,1.345l-2.417-7.405c0,0,4.352-2.654,12.04-7.089
				c3.823-2.255,8.495-4.904,13.872-7.896c5.387-2.978,11.418-6.477,18.071-10.031c6.658-3.563,13.868-7.442,21.495-11.548
				c7.604-4.115,15.719-8.226,24.07-12.624c8.388-4.236,17.036-8.676,25.921-12.926c8.839-4.361,17.904-8.523,26.942-12.805
				c9.042-4.222,17.834-9.247,26.473-14.244c4.338-2.431,8.611-4.936,12.926-7.112c4.333-2.157,8.699-4.004,13.074-5.591
				c8.76-3.108,17.668-4.741,26.311-5.697c8.643-0.97,16.976-1.373,24.873-1.151c15.705,0.26,29.526,2.654,39.496,5.289
				c2.473,0.603,4.769,1.392,6.728,1.995c1.967,0.603,3.642,1.132,5.052,1.707c2.779,1.011,4.306,1.716,4.306,1.716L833.472,302.994
				z"/>
			<linearGradient id="SVGID_3_" gradientUnits="userSpaceOnUse" x1="135.9288" y1="654.4012" x2="739.301" y2="51.0291">
				<stop  offset="0" style="stop-color:#FF001C"/>
				<stop  offset="0.2194" style="stop-color:#FF009D"/>
				<stop  offset="0.2587" style="stop-color:#F9049F"/>
				<stop  offset="0.3112" style="stop-color:#E80FA3"/>
				<stop  offset="0.3713" style="stop-color:#CC22AA"/>
				<stop  offset="0.437" style="stop-color:#A53CB4"/>
				<stop  offset="0.5073" style="stop-color:#735DC0"/>
				<stop  offset="0.5802" style="stop-color:#3785CF"/>
				<stop  offset="0.6399" style="stop-color:#00AADD"/>
				<stop  offset="0.898" style="stop-color:#E9D013"/>
				<stop  offset="1" style="stop-color:#FFD400"/>
			</linearGradient>
			<path style="fill:url(#SVGID_3_);" d="M682.692,91.408c0,0,0.204,1.679,0.311,4.621c0.102,1.512,0.088,3.275,0.051,5.335
				c-0.023,2.05,0.014,4.472-0.195,7.015c-0.571,10.299-2.547,24.181-7.168,39.204c-2.218,7.572-5.182,15.366-8.778,23.291
				c-3.577,7.915-7.887,15.895-13.547,23.263c-2.858,3.67-5.967,7.251-9.363,10.694c-3.405,3.447-7.099,6.732-10.755,10.11
				c-7.423,6.653-14.907,13.478-21.732,20.767c-6.871,7.256-13.622,14.605-20.502,21.666c-6.788,7.136-13.687,13.988-20.317,20.655
				c-6.751,6.579-13.167,13.027-19.44,18.985c-6.264,5.98-12.165,11.641-17.626,16.869c-5.437,5.243-10.633,9.882-15.12,14.086
				c-4.505,4.199-8.472,7.818-11.803,10.764c-6.583,5.939-10.453,9.256-10.453,9.256l-6.3-4.579c0,0,1.953-4.705,5.568-12.796
				c1.767-4.087,3.995-8.982,6.588-14.568c2.612-5.568,5.424-11.933,8.736-18.735c3.276-6.792,6.834-14.16,10.588-21.954
				c3.739-7.822,7.882-15.914,12.058-24.367c4.301-8.36,8.681-17.041,13.362-25.694c4.603-8.731,9.493-17.417,14.285-26.194
				c4.82-8.741,8.992-17.965,13.032-27.095c2.078-4.519,4.069-9.047,6.292-13.343c2.236-4.287,4.676-8.352,7.279-12.207
				c5.266-7.66,11.515-14.22,17.95-20.075c6.417-5.864,12.912-11.093,19.435-15.543c12.856-9.038,25.452-15.199,35.071-18.929
				c2.357-0.97,4.663-1.684,6.616-2.348c1.949-0.668,3.615-1.23,5.09-1.596c2.84-0.798,4.491-1.141,4.482-1.141L682.692,91.408z"/>
			<linearGradient id="SVGID_4_" gradientUnits="userSpaceOnUse" x1="40.6955" y1="559.1386" x2="644.0469" y2="-44.2128">
				<stop  offset="0" style="stop-color:#FF001C"/>
				<stop  offset="0.2194" style="stop-color:#FF009D"/>
				<stop  offset="0.2587" style="stop-color:#F9049F"/>
				<stop  offset="0.3112" style="stop-color:#E80FA3"/>
				<stop  offset="0.3713" style="stop-color:#CC22AA"/>
				<stop  offset="0.437" style="stop-color:#A53CB4"/>
				<stop  offset="0.5073" style="stop-color:#735DC0"/>
				<stop  offset="0.5802" style="stop-color:#3785CF"/>
				<stop  offset="0.6399" style="stop-color:#00AADD"/>
				<stop  offset="0.898" style="stop-color:#E9D013"/>
				<stop  offset="1" style="stop-color:#FFD400"/>
			</linearGradient>
			<path style="fill:url(#SVGID_4_);" d="M428.533,325.955c0,0-1.179-4.941-3.021-13.626c-0.97-4.329-2.046-9.599-3.215-15.64
				c-1.174-6.031-2.645-12.852-3.957-20.28c-1.341-7.437-2.798-15.486-4.338-24c-1.582-8.518-2.974-17.496-4.566-26.789
				c-1.438-9.288-2.997-18.883-4.296-28.64c-1.42-9.757-2.561-19.667-3.851-29.577c-1.234-9.901-3.285-19.811-5.382-29.572
				c-0.97-4.876-2.023-9.706-2.751-14.499c-0.715-4.774-1.132-9.497-1.276-14.146c-0.264-9.288,0.946-18.266,2.714-26.779
				c1.735-8.518,3.925-16.573,6.584-24.005c5.089-14.865,11.65-27.243,17.241-35.919c1.336-2.171,2.779-4.101,3.971-5.786
				c1.183-1.684,2.199-3.118,3.183-4.278c1.814-2.32,2.96-3.558,2.96-3.558h7.785c0,0,1.142,1.239,2.956,3.558
				c0.983,1.16,2.013,2.594,3.192,4.278c1.183,1.684,2.631,3.614,3.976,5.786c5.586,8.676,12.146,21.054,17.236,35.919
				c2.663,7.433,4.848,15.487,6.588,24.005c1.763,8.514,2.965,17.491,2.71,26.779c-0.144,4.649-0.562,9.372-1.276,14.146
				c-0.738,4.793-1.782,9.622-2.756,14.499c-2.092,9.762-4.148,19.672-5.382,29.572c-1.28,9.91-2.431,19.82-3.842,29.577
				c-1.304,9.757-2.858,19.351-4.296,28.64c-1.591,9.293-2.997,18.27-4.57,26.789c-1.54,8.514-3.002,16.563-4.329,24
				c-1.327,7.428-2.793,14.248-3.967,20.28c-1.178,6.041-2.255,11.311-3.215,15.64c-1.842,8.685-3.025,13.626-3.025,13.626H428.533z
				"/>
			<linearGradient id="SVGID_5_" gradientUnits="userSpaceOnUse" x1="-11.2625" y1="507.2037" x2="592.1156" y2="-96.1744">
				<stop  offset="0" style="stop-color:#FF001C"/>
				<stop  offset="0.2194" style="stop-color:#FF009D"/>
				<stop  offset="0.2587" style="stop-color:#F9049F"/>
				<stop  offset="0.3112" style="stop-color:#E80FA3"/>
				<stop  offset="0.3713" style="stop-color:#CC22AA"/>
				<stop  offset="0.437" style="stop-color:#A53CB4"/>
				<stop  offset="0.5073" style="stop-color:#735DC0"/>
				<stop  offset="0.5802" style="stop-color:#3785CF"/>
				<stop  offset="0.6399" style="stop-color:#00AADD"/>
				<stop  offset="0.898" style="stop-color:#E9D013"/>
				<stop  offset="1" style="stop-color:#FFD400"/>
			</linearGradient>
			<path style="fill:url(#SVGID_5_);" d="M368.604,347.988c0,0-3.869-3.317-10.458-9.256c-3.327-2.946-7.298-6.565-11.798-10.764
				c-4.5-4.204-9.682-8.843-15.125-14.086c-5.461-5.229-11.367-10.889-17.621-16.869c-6.287-5.957-12.689-12.406-19.44-18.985
				c-6.63-6.667-13.534-13.52-20.317-20.655c-6.885-7.061-13.636-14.41-20.502-21.666c-6.825-7.289-14.308-14.114-21.741-20.767
				c-3.661-3.378-7.349-6.663-10.745-10.11c-3.392-3.442-6.509-7.024-9.367-10.694c-5.665-7.368-9.966-15.348-13.543-23.263
				c-3.6-7.924-6.565-15.719-8.792-23.291c-4.616-15.023-6.597-28.904-7.168-39.204c-0.195-2.543-0.158-4.965-0.185-7.015
				c-0.037-2.06-0.051-3.823,0.06-5.335c0.102-2.942,0.311-4.621,0.311-4.621l6.282-4.584c0,0,1.661,0.343,4.5,1.141
				c1.476,0.366,3.137,0.928,5.076,1.596c1.958,0.664,4.273,1.378,6.625,2.348c9.618,3.73,22.205,9.891,35.075,18.929
				c6.514,4.45,13.014,9.679,19.435,15.543c6.435,5.855,12.685,12.415,17.946,20.075c2.603,3.855,5.043,7.92,7.279,12.207
				c2.218,4.296,4.208,8.824,6.296,13.343c4.036,9.131,8.207,18.354,13.032,27.095c4.788,8.778,9.687,17.463,14.271,26.194
				c4.691,8.653,9.066,17.334,13.376,25.694c4.171,8.453,8.314,16.545,12.044,24.367c3.763,7.794,7.326,15.162,10.601,21.954
				c3.303,6.802,6.124,13.167,8.732,18.735c2.594,5.586,4.821,10.481,6.588,14.568c3.61,8.091,5.559,12.796,5.559,12.796
				L368.604,347.988z"/>
			<linearGradient id="SVGID_6_" gradientUnits="userSpaceOnUse" x1="6.6321" y1="525.0703" x2="609.9749" y2="-78.2725">
				<stop  offset="0" style="stop-color:#FF001C"/>
				<stop  offset="0.2194" style="stop-color:#FF009D"/>
				<stop  offset="0.2587" style="stop-color:#F9049F"/>
				<stop  offset="0.3112" style="stop-color:#E80FA3"/>
				<stop  offset="0.3713" style="stop-color:#CC22AA"/>
				<stop  offset="0.437" style="stop-color:#A53CB4"/>
				<stop  offset="0.5073" style="stop-color:#735DC0"/>
				<stop  offset="0.5802" style="stop-color:#3785CF"/>
				<stop  offset="0.6399" style="stop-color:#00AADD"/>
				<stop  offset="0.898" style="stop-color:#E9D013"/>
				<stop  offset="1" style="stop-color:#FFD400"/>
			</linearGradient>
			<path style="fill:url(#SVGID_6_);" d="M333.028,401.004c0,0-5.08-0.418-13.9-1.345c-4.421-0.418-9.761-1.02-15.872-1.763
				c-6.096-0.752-13.033-1.466-20.521-2.505c-7.474-1.021-15.584-2.125-24.158-3.294c-8.597-1.141-17.57-2.575-26.9-3.929
				c-9.279-1.513-18.883-2.993-28.58-4.779c-9.706-1.661-19.491-3.633-29.317-5.474c-9.803-1.879-19.862-3.011-29.795-4.023
				c-4.932-0.585-9.864-1.081-14.633-1.865c-4.774-0.802-9.4-1.86-13.858-3.155c-8.908-2.635-17.083-6.551-24.645-10.856
				c-7.562-4.287-14.54-8.861-20.785-13.677c-12.564-9.441-22.325-19.505-28.848-27.512c-1.652-1.939-3.044-3.907-4.278-5.559
				c-1.234-1.642-2.283-3.071-3.085-4.347c-1.647-2.445-2.478-3.925-2.478-3.925l2.403-7.4c0,0,1.55-0.705,4.306-1.716
				c1.406-0.575,3.085-1.104,5.053-1.707c1.985-0.603,4.259-1.392,6.736-1.995c9.984-2.635,23.792-5.029,39.501-5.289
				c7.887-0.223,16.229,0.181,24.868,1.151c8.648,0.956,17.556,2.589,26.315,5.697c4.375,1.587,8.732,3.433,13.061,5.591
				c4.329,2.176,8.601,4.681,12.94,7.112c8.634,4.997,17.426,10.022,26.473,14.244c9.024,4.282,18.094,8.444,26.942,12.805
				c8.88,4.25,17.523,8.69,25.93,12.926c8.333,4.398,16.443,8.509,24.061,12.624c7.627,4.106,14.823,7.985,21.49,11.548
				c6.653,3.554,12.684,7.052,18.066,10.031c5.382,2.993,10.059,5.642,13.882,7.896c7.683,4.435,12.025,7.089,12.025,7.089
				L333.028,401.004z"/>
		</g>
		
			<linearGradient id="SVGID_7_" gradientUnits="userSpaceOnUse" x1="-63.7032" y1="937.4045" x2="539.6901" y2="334.0113" gradientTransform="matrix(0.7766 0.63 -0.63 0.7766 380.22 -556.1876)">
			<stop  offset="0" style="stop-color:#FF001C"/>
			<stop  offset="0.2194" style="stop-color:#FF009D"/>
			<stop  offset="0.2587" style="stop-color:#F9049F"/>
			<stop  offset="0.3112" style="stop-color:#E80FA3"/>
			<stop  offset="0.3713" style="stop-color:#CC22AA"/>
			<stop  offset="0.437" style="stop-color:#A53CB4"/>
			<stop  offset="0.5073" style="stop-color:#735DC0"/>
			<stop  offset="0.5802" style="stop-color:#3785CF"/>
			<stop  offset="0.6399" style="stop-color:#00AADD"/>
			<stop  offset="0.898" style="stop-color:#E9D013"/>
			<stop  offset="1" style="stop-color:#FFD400"/>
		</linearGradient>
		<polygon style="fill:url(#SVGID_7_);" points="589.085,0 570.248,45.157 597.997,85.46 552.831,66.624 512.528,94.364 
			531.355,49.207 503.624,8.903 548.776,27.739 		"/>
		
			<linearGradient id="SVGID_8_" gradientUnits="userSpaceOnUse" x1="91.6917" y1="1181.3225" x2="695.1418" y2="577.8724" gradientTransform="matrix(0.4732 0.8809 -0.8809 0.4732 769.9846 -734.7872)">
			<stop  offset="0" style="stop-color:#FF001C"/>
			<stop  offset="0.2194" style="stop-color:#FF009D"/>
			<stop  offset="0.2587" style="stop-color:#F9049F"/>
			<stop  offset="0.3112" style="stop-color:#E80FA3"/>
			<stop  offset="0.3713" style="stop-color:#CC22AA"/>
			<stop  offset="0.437" style="stop-color:#A53CB4"/>
			<stop  offset="0.5073" style="stop-color:#735DC0"/>
			<stop  offset="0.5802" style="stop-color:#3785CF"/>
			<stop  offset="0.6399" style="stop-color:#00AADD"/>
			<stop  offset="0.898" style="stop-color:#E9D013"/>
			<stop  offset="1" style="stop-color:#FFD400"/>
		</linearGradient>
		<polygon style="fill:url(#SVGID_8_);" points="795.396,185.479 774.142,206.492 780.257,235.744 759.254,214.486 729.997,220.61 
			751.264,199.602 745.126,170.35 766.139,191.613 		"/>
		
			<linearGradient id="SVGID_9_" gradientUnits="userSpaceOnUse" x1="514.5688" y1="1291.4287" x2="1118.1243" y2="687.8734" gradientTransform="matrix(-0.5605 0.8282 -0.8282 -0.5605 1899.525 -343.7487)">
			<stop  offset="0" style="stop-color:#FF001C"/>
			<stop  offset="0.2194" style="stop-color:#FF009D"/>
			<stop  offset="0.2587" style="stop-color:#F9049F"/>
			<stop  offset="0.3112" style="stop-color:#E80FA3"/>
			<stop  offset="0.3713" style="stop-color:#CC22AA"/>
			<stop  offset="0.437" style="stop-color:#A53CB4"/>
			<stop  offset="0.5073" style="stop-color:#735DC0"/>
			<stop  offset="0.5802" style="stop-color:#3785CF"/>
			<stop  offset="0.6399" style="stop-color:#00AADD"/>
			<stop  offset="0.898" style="stop-color:#E9D013"/>
			<stop  offset="1" style="stop-color:#FFD400"/>
		</linearGradient>
		<polygon style="fill:url(#SVGID_9_);" points="760.45,418.793 744.978,413.856 732.451,424.193 737.369,408.716 727.046,396.188 
			742.519,401.116 755.045,390.779 750.118,406.261 		"/>
		
			<linearGradient id="SVGID_10_" gradientUnits="userSpaceOnUse" x1="229.4633" y1="1318.9193" x2="832.8374" y2="715.5452" gradientTransform="matrix(0.4732 0.8809 -0.8809 0.4732 769.9846 -734.7872)">
			<stop  offset="0" style="stop-color:#FF001C"/>
			<stop  offset="0.2194" style="stop-color:#FF009D"/>
			<stop  offset="0.2587" style="stop-color:#F9049F"/>
			<stop  offset="0.3112" style="stop-color:#E80FA3"/>
			<stop  offset="0.3713" style="stop-color:#CC22AA"/>
			<stop  offset="0.437" style="stop-color:#A53CB4"/>
			<stop  offset="0.5073" style="stop-color:#735DC0"/>
			<stop  offset="0.5802" style="stop-color:#3785CF"/>
			<stop  offset="0.6399" style="stop-color:#00AADD"/>
			<stop  offset="0.898" style="stop-color:#E9D013"/>
			<stop  offset="1" style="stop-color:#FFD400"/>
		</linearGradient>
		<polygon style="fill:url(#SVGID_10_);" points="153.172,195.45 131.909,216.462 138.033,245.724 117.03,224.456 87.778,230.581 
			109.036,209.568 102.902,180.329 123.915,201.583 		"/>
		
			<linearGradient id="SVGID_11_" gradientUnits="userSpaceOnUse" x1="931.3382" y1="1432.8147" x2="1534.7627" y2="829.3902" gradientTransform="matrix(-0.3435 0.9391 -0.9391 -0.3435 1646.1447 -418.0185)">
			<stop  offset="0" style="stop-color:#FF001C"/>
			<stop  offset="0.2194" style="stop-color:#FF009D"/>
			<stop  offset="0.2587" style="stop-color:#F9049F"/>
			<stop  offset="0.3112" style="stop-color:#E80FA3"/>
			<stop  offset="0.3713" style="stop-color:#CC22AA"/>
			<stop  offset="0.437" style="stop-color:#A53CB4"/>
			<stop  offset="0.5073" style="stop-color:#735DC0"/>
			<stop  offset="0.5802" style="stop-color:#3785CF"/>
			<stop  offset="0.6399" style="stop-color:#00AADD"/>
			<stop  offset="0.898" style="stop-color:#E9D013"/>
			<stop  offset="1" style="stop-color:#FFD400"/>
		</linearGradient>
		<polygon style="fill:url(#SVGID_11_);" points="218.446,435.625 198.899,434.363 187.245,450.11 188.498,430.568 172.76,418.909 
			192.302,420.161 203.952,404.419 202.699,423.975 		"/>
		<linearGradient id="SVGID_12_" gradientUnits="userSpaceOnUse" x1="-5.7614" y1="512.7585" x2="597.6864" y2="-90.6892">
			<stop  offset="0" style="stop-color:#FF001C"/>
			<stop  offset="0.2194" style="stop-color:#FF009D"/>
			<stop  offset="0.2587" style="stop-color:#F9049F"/>
			<stop  offset="0.3112" style="stop-color:#E80FA3"/>
			<stop  offset="0.3713" style="stop-color:#CC22AA"/>
			<stop  offset="0.437" style="stop-color:#A53CB4"/>
			<stop  offset="0.5073" style="stop-color:#735DC0"/>
			<stop  offset="0.5802" style="stop-color:#3785CF"/>
			<stop  offset="0.6399" style="stop-color:#00AADD"/>
			<stop  offset="0.898" style="stop-color:#E9D013"/>
			<stop  offset="1" style="stop-color:#FFD400"/>
		</linearGradient>
		<circle style="fill:url(#SVGID_12_);" cx="229.622" cy="277.375" r="12.968"/>
		<linearGradient id="SVGID_13_" gradientUnits="userSpaceOnUse" x1="-69.0468" y1="471.3387" x2="534.2895" y2="-131.9976">
			<stop  offset="0" style="stop-color:#FF001C"/>
			<stop  offset="0.2194" style="stop-color:#FF009D"/>
			<stop  offset="0.2587" style="stop-color:#F9049F"/>
			<stop  offset="0.3112" style="stop-color:#E80FA3"/>
			<stop  offset="0.3713" style="stop-color:#CC22AA"/>
			<stop  offset="0.437" style="stop-color:#A53CB4"/>
			<stop  offset="0.5073" style="stop-color:#735DC0"/>
			<stop  offset="0.5802" style="stop-color:#3785CF"/>
			<stop  offset="0.6399" style="stop-color:#00AADD"/>
			<stop  offset="0.898" style="stop-color:#E9D013"/>
			<stop  offset="1" style="stop-color:#FFD400"/>
		</linearGradient>
		<path style="fill:url(#SVGID_13_);" d="M44.138,380.099c0,12.105-9.827,21.936-21.941,21.936s-21.94-9.831-21.94-21.936
			c0-12.123,9.826-21.94,21.94-21.94S44.138,367.976,44.138,380.099z"/>
		<linearGradient id="SVGID_14_" gradientUnits="userSpaceOnUse" x1="-19.1804" y1="499.2497" x2="584.1603" y2="-104.091">
			<stop  offset="0" style="stop-color:#FF001C"/>
			<stop  offset="0.2194" style="stop-color:#FF009D"/>
			<stop  offset="0.2587" style="stop-color:#F9049F"/>
			<stop  offset="0.3112" style="stop-color:#E80FA3"/>
			<stop  offset="0.3713" style="stop-color:#CC22AA"/>
			<stop  offset="0.437" style="stop-color:#A53CB4"/>
			<stop  offset="0.5073" style="stop-color:#735DC0"/>
			<stop  offset="0.5802" style="stop-color:#3785CF"/>
			<stop  offset="0.6399" style="stop-color:#00AADD"/>
			<stop  offset="0.898" style="stop-color:#E9D013"/>
			<stop  offset="1" style="stop-color:#FFD400"/>
		</linearGradient>
		<path style="fill:url(#SVGID_14_);" d="M369.231,118.809c0,4.407-3.567,7.984-7.971,7.984c-4.407,0-7.98-3.577-7.98-7.984
			c0-4.408,3.573-7.971,7.98-7.971C365.663,110.838,369.231,114.401,369.231,118.809z"/>
		<linearGradient id="SVGID_15_" gradientUnits="userSpaceOnUse" x1="353.9138" y1="733.4807" x2="856.7645" y2="230.6301">
			<stop  offset="0" style="stop-color:#FF001C"/>
			<stop  offset="0.2194" style="stop-color:#FF009D"/>
			<stop  offset="0.2587" style="stop-color:#F9049F"/>
			<stop  offset="0.3112" style="stop-color:#E80FA3"/>
			<stop  offset="0.3713" style="stop-color:#CC22AA"/>
			<stop  offset="0.437" style="stop-color:#A53CB4"/>
			<stop  offset="0.5073" style="stop-color:#735DC0"/>
			<stop  offset="0.5802" style="stop-color:#3785CF"/>
			<stop  offset="0.6399" style="stop-color:#00AADD"/>
			<stop  offset="0.898" style="stop-color:#E9D013"/>
			<stop  offset="1" style="stop-color:#FFD400"/>
		</linearGradient>
		<path style="fill:url(#SVGID_15_);" d="M681.374,420.973c0,8.268-6.69,14.967-14.962,14.967c-8.258,0-14.953-6.699-14.953-14.967
			c0-8.254,6.695-14.958,14.953-14.958C674.684,406.015,681.374,412.719,681.374,420.973z"/>
		<g>
			<linearGradient id="SVGID_16_" gradientUnits="userSpaceOnUse" x1="231.6421" y1="750.0441" x2="834.9695" y2="146.7167">
				<stop  offset="0" style="stop-color:#FF001C"/>
				<stop  offset="0.2194" style="stop-color:#FF009D"/>
				<stop  offset="0.2587" style="stop-color:#F9049F"/>
				<stop  offset="0.3112" style="stop-color:#E80FA3"/>
				<stop  offset="0.3713" style="stop-color:#CC22AA"/>
				<stop  offset="0.437" style="stop-color:#A53CB4"/>
				<stop  offset="0.5073" style="stop-color:#735DC0"/>
				<stop  offset="0.5802" style="stop-color:#3785CF"/>
				<stop  offset="0.6399" style="stop-color:#00AADD"/>
				<stop  offset="0.898" style="stop-color:#E9D013"/>
				<stop  offset="1" style="stop-color:#FFD400"/>
			</linearGradient>
			<path style="fill:url(#SVGID_16_);" d="M732.237,259.424c-5.507,0-9.975-4.473-9.975-9.97s4.468-9.975,9.975-9.975
				c5.498,0,9.966,4.477,9.966,9.975S737.736,259.424,732.237,259.424z M732.237,243.464c-3.303,0-5.985,2.691-5.985,5.989
				s2.681,5.98,5.985,5.98c3.294,0,5.98-2.682,5.98-5.98S735.532,243.464,732.237,243.464z"/>
		</g>
		<g>
			<linearGradient id="SVGID_17_" gradientUnits="userSpaceOnUse" x1="-73.5521" y1="444.9256" x2="529.8234" y2="-158.4499">
				<stop  offset="0" style="stop-color:#FF001C"/>
				<stop  offset="0.2194" style="stop-color:#FF009D"/>
				<stop  offset="0.2587" style="stop-color:#F9049F"/>
				<stop  offset="0.3112" style="stop-color:#E80FA3"/>
				<stop  offset="0.3713" style="stop-color:#CC22AA"/>
				<stop  offset="0.437" style="stop-color:#A53CB4"/>
				<stop  offset="0.5073" style="stop-color:#735DC0"/>
				<stop  offset="0.5802" style="stop-color:#3785CF"/>
				<stop  offset="0.6399" style="stop-color:#00AADD"/>
				<stop  offset="0.898" style="stop-color:#E9D013"/>
				<stop  offset="1" style="stop-color:#FFD400"/>
			</linearGradient>
			<path style="fill:url(#SVGID_17_);" d="M315.384,75.931c-10.996,0-19.945-8.945-19.945-19.941c0-10.995,8.95-19.95,19.945-19.95
				c11.005,0,19.945,8.954,19.945,19.95C335.33,66.986,326.389,75.931,315.384,75.931z M315.384,40.03
				c-8.797,0-15.951,7.159-15.951,15.96c0,8.797,7.154,15.951,15.951,15.951c8.806,0,15.96-7.154,15.96-15.951
				C331.344,47.189,324.19,40.03,315.384,40.03z"/>
		</g>
		<g>
			<linearGradient id="SVGID_18_" gradientUnits="userSpaceOnUse" x1="-18.2127" y1="500.2839" x2="585.2153" y2="-103.1441">
				<stop  offset="0" style="stop-color:#FF001C"/>
				<stop  offset="0.2194" style="stop-color:#FF009D"/>
				<stop  offset="0.2587" style="stop-color:#F9049F"/>
				<stop  offset="0.3112" style="stop-color:#E80FA3"/>
				<stop  offset="0.3713" style="stop-color:#CC22AA"/>
				<stop  offset="0.437" style="stop-color:#A53CB4"/>
				<stop  offset="0.5073" style="stop-color:#735DC0"/>
				<stop  offset="0.5802" style="stop-color:#3785CF"/>
				<stop  offset="0.6399" style="stop-color:#00AADD"/>
				<stop  offset="0.898" style="stop-color:#E9D013"/>
				<stop  offset="1" style="stop-color:#FFD400"/>
			</linearGradient>
			<path style="fill:url(#SVGID_18_);" d="M193.726,295.325c-3.851,0-6.978-3.127-6.978-6.978c0-3.851,3.127-6.987,6.978-6.987
				c3.851,0,6.978,3.137,6.978,6.987C200.704,292.198,197.577,295.325,193.726,295.325z M193.726,285.35
				c-1.647,0-2.997,1.345-2.997,2.997c0,1.642,1.35,2.997,2.997,2.997c1.642,0,2.993-1.355,2.993-2.997
				C196.719,286.696,195.368,285.35,193.726,285.35z"/>
		</g>
		<g>
			<linearGradient id="SVGID_19_" gradientUnits="userSpaceOnUse" x1="34.3275" y1="484.1396" x2="537.1501" y2="-18.6831">
				<stop  offset="0" style="stop-color:#FF001C"/>
				<stop  offset="0.2194" style="stop-color:#FF009D"/>
				<stop  offset="0.2587" style="stop-color:#F9049F"/>
				<stop  offset="0.3112" style="stop-color:#E80FA3"/>
				<stop  offset="0.3713" style="stop-color:#CC22AA"/>
				<stop  offset="0.437" style="stop-color:#A53CB4"/>
				<stop  offset="0.5073" style="stop-color:#735DC0"/>
				<stop  offset="0.5802" style="stop-color:#3785CF"/>
				<stop  offset="0.6399" style="stop-color:#00AADD"/>
				<stop  offset="0.898" style="stop-color:#E9D013"/>
				<stop  offset="1" style="stop-color:#FFD400"/>
			</linearGradient>
			<path style="fill:url(#SVGID_19_);" d="M104.972,435.94c-12.374,0-22.446-10.072-22.446-22.446
				c0-12.369,10.072-22.432,22.446-22.432c12.369,0,22.437,10.063,22.437,22.432C127.409,425.868,117.341,435.94,104.972,435.94z
				 M104.972,394.379c-10.546,0-19.124,8.574-19.124,19.115c0,10.55,8.579,19.115,19.124,19.115
				c10.537,0,19.115-8.565,19.115-19.115C124.087,402.953,115.508,394.379,104.972,394.379z"/>
		</g>
		<g>
			<linearGradient id="SVGID_20_" gradientUnits="userSpaceOnUse" x1="82.0203" y1="600.4911" x2="685.3927" y2="-2.8813">
				<stop  offset="0" style="stop-color:#FF001C"/>
				<stop  offset="0.2194" style="stop-color:#FF009D"/>
				<stop  offset="0.2587" style="stop-color:#F9049F"/>
				<stop  offset="0.3112" style="stop-color:#E80FA3"/>
				<stop  offset="0.3713" style="stop-color:#CC22AA"/>
				<stop  offset="0.437" style="stop-color:#A53CB4"/>
				<stop  offset="0.5073" style="stop-color:#735DC0"/>
				<stop  offset="0.5802" style="stop-color:#3785CF"/>
				<stop  offset="0.6399" style="stop-color:#00AADD"/>
				<stop  offset="0.898" style="stop-color:#E9D013"/>
				<stop  offset="1" style="stop-color:#FFD400"/>
			</linearGradient>
			<path style="fill:url(#SVGID_20_);" d="M506.858,194.601c-10.443,0-18.953-8.49-18.953-18.948
				c0-10.443,8.509-18.948,18.953-18.948c10.439,0,18.948,8.505,18.948,18.948C525.806,186.11,517.297,194.601,506.858,194.601z
				 M506.858,160.704c-8.249,0-14.958,6.709-14.958,14.949c0,8.249,6.709,14.962,14.958,14.962c8.249,0,14.962-6.713,14.962-14.962
				C521.82,167.413,515.107,160.704,506.858,160.704z"/>
		</g>
		<g>
			<linearGradient id="SVGID_21_" gradientUnits="userSpaceOnUse" x1="342.6859" y1="861.3855" x2="946.2042" y2="257.8672">
				<stop  offset="0" style="stop-color:#FF001C"/>
				<stop  offset="0.2194" style="stop-color:#FF009D"/>
				<stop  offset="0.2587" style="stop-color:#F9049F"/>
				<stop  offset="0.3112" style="stop-color:#E80FA3"/>
				<stop  offset="0.3713" style="stop-color:#CC22AA"/>
				<stop  offset="0.437" style="stop-color:#A53CB4"/>
				<stop  offset="0.5073" style="stop-color:#735DC0"/>
				<stop  offset="0.5802" style="stop-color:#3785CF"/>
				<stop  offset="0.6399" style="stop-color:#00AADD"/>
				<stop  offset="0.898" style="stop-color:#E9D013"/>
				<stop  offset="1" style="stop-color:#FFD400"/>
			</linearGradient>
			<path style="fill:url(#SVGID_21_);" d="M811.012,405.022c-6.593,0-11.97-5.363-11.97-11.965c0-6.602,5.377-11.97,11.97-11.97
				c6.611,0,11.97,5.368,11.97,11.97C822.982,399.659,817.624,405.022,811.012,405.022z M811.012,385.072
				c-4.394,0-7.966,3.582-7.966,7.985c0,4.403,3.573,7.984,7.966,7.984c4.407,0,7.985-3.582,7.985-7.984
				C818.997,388.654,815.42,385.072,811.012,385.072z"/>
		</g>
		<g>
			<linearGradient id="SVGID_22_" gradientUnits="userSpaceOnUse" x1="197.6934" y1="716.1799" x2="801.0804" y2="112.7928">
				<stop  offset="0" style="stop-color:#FF001C"/>
				<stop  offset="0.2194" style="stop-color:#FF009D"/>
				<stop  offset="0.2587" style="stop-color:#F9049F"/>
				<stop  offset="0.3112" style="stop-color:#E80FA3"/>
				<stop  offset="0.3713" style="stop-color:#CC22AA"/>
				<stop  offset="0.437" style="stop-color:#A53CB4"/>
				<stop  offset="0.5073" style="stop-color:#735DC0"/>
				<stop  offset="0.5802" style="stop-color:#3785CF"/>
				<stop  offset="0.6399" style="stop-color:#00AADD"/>
				<stop  offset="0.898" style="stop-color:#E9D013"/>
				<stop  offset="1" style="stop-color:#FFD400"/>
			</linearGradient>
			<path style="fill:url(#SVGID_22_);" d="M643.478,289.34c-10.443,0-18.948-8.504-18.948-18.943
				c0-10.453,8.505-18.952,18.948-18.952c10.453,0,18.953,8.499,18.953,18.952C662.431,280.836,653.931,289.34,643.478,289.34z
				 M643.478,255.434c-8.244,0-14.953,6.709-14.953,14.962c0,8.245,6.709,14.953,14.953,14.953c8.249,0,14.958-6.709,14.958-14.953
				C658.437,262.143,651.728,255.434,643.478,255.434z"/>
		</g>
	</g>
</g>
<g>
</g>
<g>
</g>
<g>
</g>
<g>
</g>
<g>
</g>
<g>
</g>
<g>
</g>
<g>
</g>
<g>
</g>
<g>
</g>
<g>
</g>
<g>
</g>
<g>
</g>
<g>
</g>
<g>
</g>
</svg>
