<?xml version="1.0" encoding="utf-8"?>
<!-- Generator: Adobe Illustrator 22.1.0, SVG Export Plug-In . SVG Version: 6.00 Build 0)  -->
<svg version="1.1" id="Warstwa_1" xmlns="http://www.w3.org/2000/svg" xmlns:xlink="http://www.w3.org/1999/xlink" x="0px" y="0px"
	 viewBox="0 0 75.7 104.4" style="enable-background:new 0 0 75.7 104.4;" xml:space="preserve">
<style type="text/css">
	.st0{fill:#65625F;}
</style>
<path id="if_down_1303877" class="st0" d="M75.7,3.5c0,1-0.6,1.9-1.4,2.5L11.4,52.2l62.9,46.3c1.4,0.8,1.8,2.6,1,4
	c-0.2,0.4-0.6,0.7-1,1c-2,1.4-4.7,1.4-6.7,0L1.4,54.7c-1.4-0.8-1.8-2.6-1-4c0.2-0.4,0.6-0.7,1-1L67.6,1c2-1.4,4.7-1.4,6.7,0
	C75.1,1.6,75.7,2.5,75.7,3.5z"/>
</svg>
