<?xml version="1.0" encoding="utf-8"?>
<!-- Generator: Adobe Illustrator 22.1.0, SVG Export Plug-In . SVG Version: 6.00 Build 0)  -->
<svg version="1.1" id="Warstwa_1" xmlns="http://www.w3.org/2000/svg" xmlns:xlink="http://www.w3.org/1999/xlink" x="0px" y="0px"
	 viewBox="0 0 48 32" style="enable-background:new 0 0 48 32;" xml:space="preserve">
<style type="text/css">
	.st0{fill:#FFD400;}
</style>
<g id="Expanded">
	<g>
		<g>
			<path class="st0" d="M44,32H4c-2.2,0-4-1.8-4-4V4c0-2.2,1.8-4,4-4h40c2.2,0,4,1.8,4,4v24C48,30.2,46.2,32,44,32z M4,2
				C2.9,2,2,2.9,2,4v24c0,1.1,0.9,2,2,2h40c1.1,0,2-0.9,2-2V4c0-1.1-0.9-2-2-2H4z"/>
		</g>
		<g>
			<path class="st0" d="M24,21.2L6.5,9.8C6,9.5,5.9,8.9,6.2,8.5s0.9-0.6,1.4-0.3L24,18.8L40.5,8.2C41,7.9,41.6,8,41.9,8.5
				s0.2,1.1-0.3,1.4L24,21.2z"/>
		</g>
		<g>
			<path class="st0" d="M6,26c-0.3,0-0.6-0.2-0.8-0.4c-0.3-0.5-0.2-1.1,0.3-1.4l9-6c0.5-0.3,1.1-0.2,1.4,0.3s0.2,1.1-0.3,1.4l-9,6
				C6.4,25.9,6.2,26,6,26z"/>
		</g>
		<g>
			<path class="st0" d="M42,26c-0.2,0-0.4-0.1-0.6-0.2l-9-6c-0.5-0.3-0.6-0.9-0.3-1.4c0.3-0.5,0.9-0.6,1.4-0.3l9,6
				c0.5,0.3,0.6,0.9,0.3,1.4C42.6,25.8,42.3,26,42,26z"/>
		</g>
	</g>
</g>
</svg>
