<?xml version="1.0" encoding="iso-8859-1"?>
<!-- Generator: Adobe Illustrator 19.0.0, SVG Export Plug-In . SVG Version: 6.00 Build 0)  -->
<svg xmlns="http://www.w3.org/2000/svg" xmlns:xlink="http://www.w3.org/1999/xlink" version="1.1" id="Layer_1" x="0px" y="0px" viewBox="0 0 512 512" style="enable-background:new 0 0 512 512;" xml:space="preserve" width="512px" height="512px">
<g>
	<g>
		<path d="M374.311,0H137.689c-5.632,0-10.199,4.566-10.199,10.199v491.602c0,5.633,4.567,10.199,10.199,10.199h236.622    c5.632,0,10.199-4.566,10.199-10.199V10.199C384.51,4.566,379.943,0,374.311,0z M302.916,491.602h-36.717v-21.418    c0-5.633-4.567-10.199-10.199-10.199s-10.199,4.566-10.199,10.199v21.418h-36.717v-79.554h93.833V491.602z M364.112,491.602    h-40.797v-89.753c0-5.633-4.567-10.199-10.199-10.199H198.884c-5.632,0-10.199,4.566-10.199,10.199v89.753h-40.797V20.398h216.223    V491.602z" fill="#FFDA44"/>
	</g>
</g>
<g>
	<g>
		<path d="M227.442,42.837h-41.817c-5.632,0-10.199,4.566-10.199,10.199v67.315c0,5.633,4.567,10.199,10.199,10.199h41.817    c5.632,0,10.199-4.566,10.199-10.199V53.036C237.641,47.403,233.074,42.837,227.442,42.837z M217.243,110.151h-21.418V63.235    h21.418V110.151z" fill="#FFDA44"/>
	</g>
</g>
<g>
	<g>
		<path d="M326.375,42.837h-41.817c-5.632,0-10.199,4.566-10.199,10.199v67.315c0,5.633,4.567,10.199,10.199,10.199h41.817    c5.632,0,10.199-4.566,10.199-10.199V53.036C336.574,47.403,332.007,42.837,326.375,42.837z M316.175,110.151h-21.418V63.235    h21.418V110.151z" fill="#FFDA44"/>
	</g>
</g>
<g>
	<g>
		<path d="M227.442,156.048h-41.817c-5.632,0-10.199,4.566-10.199,10.199v67.315c0,5.633,4.567,10.199,10.199,10.199h41.817    c5.632,0,10.199-4.566,10.199-10.199v-67.315C237.641,160.614,233.074,156.048,227.442,156.048z M217.243,223.363h-21.418v-46.916    h21.418V223.363z" fill="#FFDA44"/>
	</g>
</g>
<g>
	<g>
		<path d="M326.375,156.048h-41.817c-5.632,0-10.199,4.566-10.199,10.199v67.315c0,5.633,4.567,10.199,10.199,10.199h41.817    c5.632,0,10.199-4.566,10.199-10.199v-67.315C336.574,160.614,332.007,156.048,326.375,156.048z M316.175,223.363h-21.418v-46.916    h21.418V223.363z" fill="#FFDA44"/>
	</g>
</g>
<g>
	<g>
		<path d="M227.442,268.239h-41.817c-5.632,0-10.199,4.566-10.199,10.199v67.315c0,5.633,4.567,10.199,10.199,10.199h41.817    c5.632,0,10.199-4.566,10.199-10.199v-67.315C237.641,272.805,233.074,268.239,227.442,268.239z M217.243,335.554h-21.418v-46.916    h21.418V335.554z" fill="#FFDA44"/>
	</g>
</g>
<g>
	<g>
		<path d="M326.375,268.239h-41.817c-5.632,0-10.199,4.566-10.199,10.199v67.315c0,5.633,4.567,10.199,10.199,10.199h41.817    c5.632,0,10.199-4.566,10.199-10.199v-67.315C336.574,272.805,332.007,268.239,326.375,268.239z M316.175,335.554h-21.418v-46.916    h21.418V335.554z" fill="#FFDA44"/>
	</g>
</g>
<g>
	<g>
		<path d="M256,424.287c-5.632,0-10.199,4.566-10.199,10.199v3.06c0,5.633,4.567,10.199,10.199,10.199s10.199-4.566,10.199-10.199    v-3.06C266.199,428.853,261.632,424.287,256,424.287z" fill="#FFDA44"/>
	</g>
</g>
<g>
</g>
<g>
</g>
<g>
</g>
<g>
</g>
<g>
</g>
<g>
</g>
<g>
</g>
<g>
</g>
<g>
</g>
<g>
</g>
<g>
</g>
<g>
</g>
<g>
</g>
<g>
</g>
<g>
</g>
</svg>
