<?xml version="1.0" encoding="iso-8859-1"?>
<!-- Generator: Adobe Illustrator 22.1.0, SVG Export Plug-In . SVG Version: 6.00 Build 0)  -->
<svg version="1.1" id="Warstwa_1" xmlns="http://www.w3.org/2000/svg" xmlns:xlink="http://www.w3.org/1999/xlink" x="0px" y="0px"
	 viewBox="0 0 409.602 409.602" style="enable-background:new 0 0 409.602 409.602;" xml:space="preserve">
<path style="fill:#FF8E00;" d="M204.801,377.602"/>
<g>
	<path style="fill:#FF8E00;" d="M398.611,156.58c-1.625-2.402-2.715-5.277-3.484-8.047c-1.137-4.09-1.052-8.862-3.401-12.502
		c-2.091-3.24-7.128-6.024-9.247-9.735L207,271.708l-52.517-72.845l-28.213,23.505l72.637,97.702l202.445-160.908
		C400.365,158.616,399.422,157.779,398.611,156.58z"/>
	<path style="fill:#FF8E00;" d="M207,271.708"/>
	<path style="fill:#FF8E00;" d="M390.637,119.537c-8.313,6.599-15.941,13.21-24.113,19.981c-0.341,0.282-1.047,1.001-1.413,1.171
		c7.141,18.949,12.491,42.665,12.491,64.112c0,95.437-77.364,172.801-172.801,172.801C109.363,377.602,32,300.238,32,204.801
		C32,109.363,109.363,32,204.801,32c62.664,0,117.502,33.374,147.796,83.298c7.731-7.731,15.462-15.462,23.193-23.193
		C339.155,36.621,276.269,0,204.801,0C91.688,0,0,91.687,0,204.801c0,113.113,91.688,204.801,204.801,204.801
		s204.801-91.688,204.801-204.801C409.602,175.704,401.575,144.602,390.637,119.537z"/>
	<circle style="fill:#FF8E00;" cx="218.561" cy="194.919" r="28.265"/>
</g>
</svg>
