<?xml version="1.0" encoding="utf-8"?>
<!-- Generator: Adobe Illustrator 22.1.0, SVG Export Plug-In . SVG Version: 6.00 Build 0)  -->
<svg version="1.1" id="Layer_1" xmlns="http://www.w3.org/2000/svg" xmlns:xlink="http://www.w3.org/1999/xlink" x="0px" y="0px"
	 viewBox="0 0 26 46" style="enable-background:new 0 0 26 46;" xml:space="preserve">
<style type="text/css">
	.st0{fill:#FFD400;}
</style>
<path class="st0" d="M22,46H4c-2.2,0-4-1.8-4-4V4c0-2.2,1.8-4,4-4h18c2.2,0,4,1.8,4,4v38C26,44.2,24.2,46,22,46z M24,4
	c0-1.1-0.9-2-2-2H4C2.9,2,2,2.9,2,4v4h22V4z M24,10H2v26h22V10z M24,38H2v4c0,1.1,0.9,2,2,2h18c1.1,0,2-0.9,2-2V38z M13,43
	c-1.1,0-2-0.9-2-2s0.9-2,2-2s2,0.9,2,2S14.1,43,13,43z M6,13h2c0.6,0,1,0.4,1,1v2c0,0.6-0.4,1-1,1H6c-0.6,0-1-0.4-1-1v-2
	C5,13.4,5.4,13,6,13z M6,20h2c0.6,0,1,0.4,1,1v2c0,0.6-0.4,1-1,1H6c-0.6,0-1-0.4-1-1v-2C5,20.4,5.4,20,6,20z M6,27h2
	c0.6,0,1,0.4,1,1v2c0,0.6-0.4,1-1,1H6c-0.6,0-1-0.4-1-1v-2C5,27.4,5.4,27,6,27z M12,13h2c0.6,0,1,0.4,1,1v2c0,0.6-0.4,1-1,1h-2
	c-0.6,0-1-0.4-1-1v-2C11,13.4,11.4,13,12,13z M12,20h2c0.6,0,1,0.4,1,1v2c0,0.6-0.4,1-1,1h-2c-0.6,0-1-0.4-1-1v-2
	C11,20.4,11.4,20,12,20z M12,27h2c0.6,0,1,0.4,1,1v2c0,0.6-0.4,1-1,1h-2c-0.6,0-1-0.4-1-1v-2C11,27.4,11.4,27,12,27z M18,13h2
	c0.6,0,1,0.4,1,1v2c0,0.6-0.4,1-1,1h-2c-0.6,0-1-0.4-1-1v-2C17,13.4,17.4,13,18,13z M18,20h2c0.6,0,1,0.4,1,1v2c0,0.6-0.4,1-1,1h-2
	c-0.6,0-1-0.4-1-1v-2C17,20.4,17.4,20,18,20z M10,4h6c0.6,0,1,0.4,1,1s-0.4,1-1,1h-6C9.4,6,9,5.6,9,5S9.4,4,10,4z"/>
</svg>
